# xmcd
#
# Track frame offsets:
#	150
#	15600
#	29338
#	43575
#	54275
#	66650
#	75463
#	85388
#	96113
#	110913
#	119150
#	133550
#	147338
#	159125
#
# Disc length: 2283 seconds
#
# Revision: 0
# Processed by: cddbd v1.5.2PL0 Copyright (c) Steve Scherf et al.
# Submitted via: dBpowerAMP V4.0
#
DISCID=bf08e90e
DTITLE=Mighty Eches - Doo Wop Til You Drop
DYEAR=2007
DGENRE=Country
TTITLE0=Under The Boardwalk
TTITLE1=The Great Pretender
TTITLE2=Gloria
TTITLE3=Sh-boom
TTITLE4=Teenager in Love
TTITLE5=Teddy Bear
TTITLE6=Remember then
TTITLE7=What's yr name
TTITLE8=The lion sleep tonight
TTITLE9=Full fall in love
TTITLE10=Monster Mash
TTITLE11=What time is it
TTITLE12=Blue Moon
TTITLE13=Do You Love Me
EXTD=
EXTT0=
EXTT1=
EXTT2=
EXTT3=
EXTT4=
EXTT5=
EXTT6=
EXTT7=
EXTT8=
EXTT9=
EXTT10=
EXTT11=
EXTT12=
EXTT13=
PLAYORDER=
